<svg width="28" height="36" viewBox="0 0 28 36" fill="none" xmlns="http://www.w3.org/2000/svg">
<mask id="mask0_0_196" style="mask-type:luminance" maskUnits="userSpaceOnUse" x="0" y="1" width="8" height="22">
<path fill-rule="evenodd" clip-rule="evenodd" d="M0 1.04688H7.97462V22.9378H0V1.04688Z" fill="white"/>
</mask>
<g mask="url(#mask0_0_196)">
<path fill-rule="evenodd" clip-rule="evenodd" d="M0 14.0223C0.0344681 14.0206 0.0688511 14.0173 0.103234 14.0173C1.63072 14.017 3.15821 14.0171 4.6857 14.0171H4.79762V15.6372H6.36485V1.04904H7.97464L7.97226 1.04688C7.97217 1.09382 7.97191 1.14076 7.97191 1.18771C7.97191 8.39652 7.97191 15.6053 7.97191 22.8141V22.9378H6.36374V17.274H4.79243V15.6505H1.61055V19.6914H3.19864V21.3114L3.20119 21.309C3.10638 21.311 3.01157 21.3146 2.91668 21.3148C2.51353 21.3155 2.11021 21.315 1.70706 21.315H1.59668V19.6908H0V14.0223Z" fill="#231F20"/>
</g>
<mask id="mask1_0_196" style="mask-type:luminance" maskUnits="userSpaceOnUse" x="8" y="31" width="17" height="5">
<path fill-rule="evenodd" clip-rule="evenodd" d="M8.05518 31.0586H24.9148V36.0005H8.05518V31.0586Z" fill="white"/>
</mask>
<g mask="url(#mask1_0_196)">
<path fill-rule="evenodd" clip-rule="evenodd" d="M24.9122 31.0587C24.913 31.1923 24.9144 31.326 24.9144 31.4596C24.9145 32.936 24.9145 34.4125 24.9145 35.889V36.0005H8.05518V35.9153C8.05518 34.3201 8.05518 32.7247 8.05535 31.1294C8.05535 31.1058 8.05844 31.0822 8.06007 31.0586L8.05758 31.061H9.67198V34.3501H23.3299V31.0611H24.9148L24.9122 31.0587Z" fill="#231F20"/>
</g>
<mask id="mask2_0_196" style="mask-type:luminance" maskUnits="userSpaceOnUse" x="24" y="13" width="4" height="18">
<path fill-rule="evenodd" clip-rule="evenodd" d="M24.1006 13.0352H27.9519V30.9742H24.1006V13.0352Z" fill="white"/>
</mask>
<g mask="url(#mask2_0_196)">
<path fill-rule="evenodd" clip-rule="evenodd" d="M24.1012 13.0369H26.0313V14.6049H27.9519V26.2959H26.039V30.9719H24.1006L24.1037 30.9742V26.2962H26.0199V14.6083H24.1035V13.0352L24.1012 13.0369Z" fill="#231F20"/>
</g>
<path fill-rule="evenodd" clip-rule="evenodd" d="M11.0053 2.00199H12.4137V8.21957H15.9983V9.78841L16 9.78649H12.4135V16H11V15.895C11 11.2967 11 6.69844 11.0003 2.10022C11.0003 2.06673 11.0046 2.03341 11.0069 2L11.0053 2.00199Z" fill="#231F20"/>
<path fill-rule="evenodd" clip-rule="evenodd" d="M8 30.9978H6.3181V28.0139H4.67469V25.0026H3.01167C3.00677 24.9822 3.00116 24.9698 3.00116 24.9574C3.00134 23.9716 3.00205 22.9858 3.00267 22L3 22.0022H4.67727V24.9965H6.32603V28.009H7.99742V31L8 30.9978Z" fill="#231F20"/>
<path fill-rule="evenodd" clip-rule="evenodd" d="M17.0026 10.0025C17.0327 10.0016 17.0628 10.0001 17.0929 10.0001C18.6906 9.99994 20.2885 10 21.8862 10H21.9983V11.4868L22 11.4852H18.6462V16H17V15.9125C17 13.9689 17 12.0254 17.0002 10.0817C17.0002 10.0547 17.0031 10.0276 17.0045 10.0007L17.0026 10.0025Z" fill="#231F20"/>
<path fill-rule="evenodd" clip-rule="evenodd" d="M22.0064 11.0034C22.0363 11.0022 22.0661 11.0002 22.096 11.0002C23.0291 10.9999 23.9622 11 24.8952 11H24.9983V12.4962C24.9982 12.4962 25 12.4945 25 12.4945C24.9676 12.4966 24.9351 12.5005 24.9026 12.5005C24.4721 12.5009 24.0417 12.5008 23.6111 12.5008H23.5093V17H22V16.8996C22 14.9657 22 13.0318 22.0004 11.0979C22.0004 11.0658 22.0053 11.0338 22.008 11.0017L22.0064 11.0034Z" fill="#231F20"/>
<path fill-rule="evenodd" clip-rule="evenodd" d="M8.00465 1.99988C8.00314 1.54094 8.00147 1.08189 8.00027 0.622953C7.99971 0.417829 8.00019 0.212599 8.00019 0H10.9984V1.99966L11 1.9971C10.6526 1.99806 10.3053 2.0002 9.95789 1.99999C9.30609 1.99977 8.6543 1.99817 8.0025 1.99732L8.00465 1.99988Z" fill="#231F20"/>
<path fill-rule="evenodd" clip-rule="evenodd" d="M7.4491 2.00017C8.15492 2.00095 8.86074 2.00215 9.56657 2.00232C9.94273 2.00249 10.3189 2.00086 10.6951 2C10.6925 2.03458 10.6877 2.06916 10.6877 2.10373C10.6874 6.86326 10.6874 11.6229 10.6874 16.3824V16.4912H12.2855V10.0596H16.3404C16.339 10.0886 16.3361 10.1176 16.3361 10.1466C16.3359 12.2298 16.3359 14.3128 16.3359 16.3959V16.4898H17.9306V11.6507H21.1795C21.1767 11.6853 21.1713 11.7198 21.1713 11.7543C21.1709 13.8374 21.1709 15.9205 21.1709 18.0036V18.1117H22.7893V13.2655H22.8987C23.3603 13.2655 23.822 13.2656 24.2836 13.2652C24.3184 13.2652 24.3532 13.2609 24.3879 13.2587V14.8826H26V26.9465H24.3881V31.775H22.7956V35H9.07126V31.7748H7.44902V28.5669H5.83057V25.3358H4.23404V22.1244H2.6099V20.5157H1V16.5027H4.22559V18.115H5.81849V23.7395H7.44876V23.6167C7.44876 16.4578 7.44876 9.29885 7.44876 2.14003C7.44876 2.09341 7.44902 2.04679 7.4491 2.00017Z" fill="#FEFEFE"/>
</svg>
