<svg width="40" height="30" viewBox="0 0 40 30" fill="none" xmlns="http://www.w3.org/2000/svg">
<path opacity="0.8" d="M1 30C0.447715 30 0 29.5523 0 29C0 28.4477 0.447715 28 1 28L1 30ZM1 2C0.447715 2 0 1.55228 0 1C0 0.447716 0.447715 0 1 0L1 2ZM26.5 16V17L25.5 16H26.5ZM38.5 16H39.5L38.5 17V16ZM38.5 15V14L39.5 15H38.5ZM26.5 15H25.5L26.5 14L26.5 15ZM1 28L25 28V30L1 30L1 28ZM26 27L26 3H28L28 27H26ZM25 2L1 2L1 0L25 0V2ZM26 3C26 2.44772 25.5523 2 25 2V0C26.6569 0 28 1.34315 28 3H26ZM25 28C25.5523 28 26 27.5523 26 27H28C28 28.6569 26.6569 30 25 30V28ZM27 17H26.5V15H27V17ZM38 17L27 17V15L38 15V17ZM38.5 17H38V15H38.5V17ZM39.5 15V16H37.5V15H39.5ZM38 14H38.5V16H38V14ZM27 14L38 14V16L27 16L27 14ZM26.5 14H27L27 16H26.5L26.5 14ZM25.5 16V15H27.5V16H25.5Z" fill="#008ACE"/>
</svg>
