<svg width="40" height="14" viewBox="0 0 40 14" fill="none" xmlns="http://www.w3.org/2000/svg">
<path opacity="0.8" d="M39 14C39.5523 14 40 13.5523 40 13C40 12.4477 39.5523 12 39 12V14ZM39 2C39.5523 2 40 1.55229 40 1C40 0.447715 39.5523 0 39 0V2ZM13.5 7.5V8.5L14.5 7.5L13.5 7.5ZM1.5 7.5H0.5L1.5 8.5V7.5ZM1.5 6.5V5.5L0.5 6.5H1.5ZM13.5 6.5L14.5 6.5L13.5 5.5V6.5ZM39 12L15 12V14L39 14V12ZM14 11V3H12V11H14ZM15 2L39 2V0L15 0V2ZM14 3C14 2.44772 14.4477 2 15 2V0C13.3431 0 12 1.34315 12 3H14ZM15 12C14.4477 12 14 11.5523 14 11H12C12 12.6569 13.3431 14 15 14V12ZM13 8.5H13.5V6.5H13V8.5ZM2 8.5H13V6.5L2 6.5V8.5ZM1.5 8.5H2V6.5H1.5V8.5ZM0.5 6.5V7.5H2.5V6.5H0.5ZM2 5.5H1.5V7.5H2V5.5ZM13 5.5L2 5.5V7.5L13 7.5V5.5ZM13.5 5.5H13V7.5H13.5V5.5ZM14.5 7.5V6.5L12.5 6.5V7.5L14.5 7.5Z" fill="#008ACE"/>
</svg>
