<svg width="40" height="459" viewBox="0 0 40 459" fill="none" xmlns="http://www.w3.org/2000/svg">
<path opacity="0.8" d="M1 459C0.447715 459 0 458.552 0 458C0 457.448 0.447715 457 1 457L1 459ZM1 2C0.447715 2 0 1.55228 0 1C0 0.447723 0.447715 0 1 0L1 2ZM26.5 237.5V238.5L25.5 237.5H26.5ZM38.5 237.5H39.5L38.5 238.5V237.5ZM38.5 236.5V235.5L39.5 236.5H38.5ZM26.5 236.5H25.5L26.5 235.5V236.5ZM1 457H25V459H1L1 457ZM26 456L26 3H28L28 456H26ZM25 2H1L1 0H25V2ZM26 3C26 2.44772 25.5523 2 25 2V0C26.6568 0 28 1.34314 28 3H26ZM25 457C25.5523 457 26 456.552 26 456H28C28 457.657 26.6569 459 25 459V457ZM27 238.5H26.5V236.5H27V238.5ZM38 238.5H27V236.5H38V238.5ZM38.5 238.5H38V236.5H38.5V238.5ZM39.5 236.5V237.5H37.5V236.5H39.5ZM38 235.5H38.5V237.5H38V235.5ZM27 235.5H38V237.5H27V235.5ZM26.5 235.5H27V237.5H26.5V235.5ZM25.5 237.5V236.5H27.5V237.5H25.5Z" fill="#008ACE"/>
</svg>
