<svg width="236" height="39" viewBox="0 0 236 39" fill="none" xmlns="http://www.w3.org/2000/svg">
<path opacity="0.8" d="M235.5 37.5C235.5 38.0523 235.052 38.5 234.5 38.5C233.948 38.5 233.5 38.0523 233.5 37.5H235.5ZM2.5 37.5C2.5 38.0523 2.05229 38.5 1.5 38.5C0.947708 38.5 0.5 38.0523 0.5 37.5H2.5ZM117.5 11.9666H118.5L117.5 12.9666V11.9666ZM117.5 1V0L118.5 1H117.5ZM116.5 1H115.5L116.5 0V1ZM116.5 11.9666V12.9666L115.5 11.9666H116.5ZM233.5 37.5V13.5H235.5V37.5H233.5ZM232.5 12.5L3.5 12.5V10.5L232.5 10.5V12.5ZM2.5 13.5V37.5H0.5V13.5H2.5ZM3.5 12.5C2.94771 12.5 2.5 12.9477 2.5 13.5H0.5C0.5 11.8431 1.84314 10.5 3.5 10.5V12.5ZM233.5 13.5C233.5 12.9477 233.052 12.5 232.5 12.5V10.5C234.157 10.5 235.5 11.8431 235.5 13.5H233.5ZM118.5 11.4666V11.9666H116.5V11.4666H118.5ZM118.5 1.5V11.4666H116.5V1.5H118.5ZM118.5 1V1.5H116.5V1H118.5ZM116.5 0H117.5V2H116.5V0ZM115.5 1.5V1H117.5V1.5H115.5ZM115.5 11.4666V1.5H117.5V11.4666H115.5ZM115.5 11.9666V11.4666H117.5V11.9666H115.5ZM117.5 12.9666H116.5V10.9666H117.5V12.9666Z" fill="#008ACE"/>
</svg>
