<svg width="365" height="40" viewBox="0 0 365 40" fill="none" xmlns="http://www.w3.org/2000/svg">
<path opacity="0.8" d="M365 39C365 39.5523 364.552 40 364 40C363.448 40 363 39.5523 363 39H365ZM2 39C2 39.5523 1.55228 40 1 40C0.447723 40 0 39.5523 0 39H2ZM180 12.637L181 12.637L180 13.637V12.637ZM180 1.5V0.5L181 1.5H180ZM179 1.5H178L179 0.5V1.5ZM179 12.637V13.637L178 12.637H179ZM363 39V14.6438H365V39H363ZM362 13.6438L3 13.6438V11.6438L362 11.6438V13.6438ZM2 14.6438V39H0V14.6438H2ZM3 13.6438C2.44772 13.6438 2 14.0915 2 14.6438H0C0 12.987 1.34314 11.6438 3 11.6438V13.6438ZM363 14.6438C363 14.0916 362.552 13.6438 362 13.6438V11.6438C363.657 11.6438 365 12.987 365 14.6438H363ZM181 12.137V12.637L179 12.637V12.137L181 12.137ZM181 2V12.137L179 12.137V2H181ZM181 1.5V2H179V1.5H181ZM179 0.5H180V2.5H179V0.5ZM178 2V1.5H180V2H178ZM178 12.137V2H180V12.137H178ZM178 12.637V12.137H180V12.637H178ZM180 13.637H179V11.637H180V13.637Z" fill="#008ACE"/>
</svg>
