<svg width="40" height="59" viewBox="0 0 40 59" fill="none" xmlns="http://www.w3.org/2000/svg">
<path opacity="0.8" d="M39 59C39.5523 59 40 58.5523 40 58C40 57.4477 39.5523 57 39 57V59ZM39 2C39.5523 2 40 1.55228 40 1C40 0.447716 39.5523 0 39 0V2ZM13 3H14H13ZM13 56H12H13ZM13.5 31V32L14.5 31H13.5ZM1.5 31H0.5L1.5 32V31ZM1.5 30V29L0.5 30H1.5ZM13.5 30H14.5L13.5 29V30ZM39 57H15V59H39V57ZM14 56L14 3H12L12 56H14ZM15 2H39V0H15V2ZM14 3C14 2.44772 14.4477 2 15 2V0C13.3431 0 12 1.34314 12 3H14ZM15 57C14.4477 57 14 56.5523 14 56H12C12 57.6569 13.3431 59 15 59V57ZM13 32H13.5V30H13V32ZM2 32H13V30H2V32ZM1.5 32H2V30H1.5V32ZM0.5 30V31H2.5V30H0.5ZM2 29H1.5V31H2V29ZM13 29H2V31H13V29ZM13.5 29H13V31H13.5V29ZM14.5 31V30H12.5V31H14.5Z" fill="#008ACE"/>
</svg>
