<svg width="183" height="38" viewBox="0 0 183 38" fill="none" xmlns="http://www.w3.org/2000/svg">
<path opacity="0.8" d="M182.5 1.5C182.5 0.947715 182.052 0.5 181.5 0.5C180.948 0.5 180.5 0.947715 180.5 1.5L182.5 1.5ZM2.5 1.5C2.5 0.947715 2.05229 0.5 1.5 0.5C0.947708 0.5 0.5 0.947715 0.5 1.5L2.5 1.5ZM92 25.3478H93L92 24.3478V25.3478ZM92 37V38L93 37H92ZM91 37H90L91 38V37ZM91 25.3478V24.3478L90 25.3478H91ZM180.5 1.5V25.8768H182.5V1.5L180.5 1.5ZM179.5 26.8768L3.5 26.8768V28.8768L179.5 28.8768V26.8768ZM2.5 25.8768V1.5L0.5 1.5V25.8768H2.5ZM3.5 26.8768C2.94772 26.8768 2.5 26.4291 2.5 25.8768H0.5C0.5 27.5337 1.84315 28.8768 3.5 28.8768V26.8768ZM180.5 25.8768C180.5 26.4291 180.052 26.8768 179.5 26.8768V28.8768C181.157 28.8768 182.5 27.5337 182.5 25.8768H180.5ZM93 25.8478V25.3478H91V25.8478H93ZM93 36.5V25.8478H91V36.5H93ZM93 37V36.5H91V37H93ZM91 38H92V36H91V38ZM90 36.5V37H92V36.5H90ZM90 25.8478V36.5H92V25.8478H90ZM90 25.3478V25.8478H92V25.3478H90ZM92 24.3478H91V26.3478H92V24.3478Z" fill="#008ACE"/>
</svg>
