<svg width="197" height="38" viewBox="0 0 197 38" fill="none" xmlns="http://www.w3.org/2000/svg">
<path opacity="0.8" d="M196.5 36.5C196.5 37.0523 196.052 37.5 195.5 37.5C194.948 37.5 194.5 37.0523 194.5 36.5H196.5ZM2.5 36.5C2.5 37.0523 2.05229 37.5 1.5 37.5C0.947708 37.5 0.5 37.0523 0.5 36.5H2.5ZM98 12H99L98 13V12ZM98 1V0L99 1L98 1ZM97 1H96L97 0V1ZM97 12V13L96 12H97ZM194.5 36.5V12.5H196.5V36.5H194.5ZM193.5 11.5L3.5 11.5V9.5L193.5 9.5V11.5ZM2.5 12.5V36.5H0.5V12.5H2.5ZM3.5 11.5C2.94771 11.5 2.5 11.9477 2.5 12.5H0.5C0.5 10.8431 1.84314 9.5 3.5 9.5V11.5ZM194.5 12.5C194.5 11.9477 194.052 11.5 193.5 11.5V9.5C195.157 9.5 196.5 10.8431 196.5 12.5H194.5ZM99 11.5V12H97V11.5H99ZM99 1.5V11.5H97V1.5L99 1.5ZM99 1V1.5L97 1.5V1L99 1ZM97 0H98V2H97V0ZM96 1.5V1H98V1.5H96ZM96 11.5V1.5H98V11.5H96ZM96 12V11.5H98V12H96ZM98 13H97V11H98V13Z" fill="#008ACE"/>
</svg>
