<svg width="492" height="39" viewBox="0 0 492 39" fill="none" xmlns="http://www.w3.org/2000/svg">
<path opacity="0.8" d="M491.5 37.5C491.5 38.0523 491.052 38.5 490.5 38.5C489.948 38.5 489.5 38.0523 489.5 37.5H491.5ZM2.5 37.5C2.5 38.0523 2.05228 38.5 1.5 38.5C0.947723 38.5 0.5 38.0523 0.5 37.5H2.5ZM244.25 12.6479H245.25L244.25 13.6479V12.6479ZM244.25 1V0L245.25 1H244.25ZM243.25 1H242.25L243.25 0V1ZM243.25 12.6479V13.6479L242.25 12.6479H243.25ZM489.5 37.5V13.1338H491.5V37.5H489.5ZM488.5 12.1338L3.5 12.1338V10.1338L488.5 10.1338V12.1338ZM2.5 13.1338V37.5H0.5V13.1338H2.5ZM3.5 12.1338C2.94772 12.1338 2.5 12.5815 2.5 13.1338H0.5C0.5 11.477 1.84311 10.1338 3.5 10.1338V12.1338ZM489.5 13.1338C489.5 12.5815 489.052 12.1338 488.5 12.1338V10.1338C490.157 10.1338 491.5 11.4769 491.5 13.1338H489.5ZM245.25 12.1479V12.6479H243.25V12.1479H245.25ZM245.25 1.5V12.1479H243.25V1.5H245.25ZM245.25 1V1.5H243.25V1H245.25ZM243.25 0H244.25V2H243.25V0ZM242.25 1.5V1H244.25V1.5H242.25ZM242.25 12.1479V1.5H244.25V12.1479H242.25ZM242.25 12.6479V12.1479H244.25V12.6479H242.25ZM244.25 13.6479H243.25V11.6479H244.25V13.6479Z" fill="#008ACE"/>
</svg>
